<svg id="App_Icon_Kit_A" data-name="App Icon Kit A" xmlns="http://www.w3.org/2000/svg" xmlns:xlink="http://www.w3.org/1999/xlink" viewBox="0 0 29 29"><defs><style>.cls-1{fill:url(#linear-gradient);}.cls-2{fill:url(#linear-gradient-2);}.cls-3{fill:#221f1f;}</style><linearGradient id="linear-gradient" x1="438.61" y1="8.27" x2="438.61" y2="847.99" gradientUnits="userSpaceOnUse"><stop offset="0" stop-color="#f9ae42"/><stop offset="1" stop-color="#f05a2a"/></linearGradient><linearGradient id="linear-gradient-2" x1="495.28" y1="306.1" x2="816.02" y2="306.1" xlink:href="#linear-gradient"/><symbol id="Icon" data-name="Icon" viewBox="0 0 888 764.28"><path class="cls-1" d="M700.3,717.64h-6.92c-100.48,0-182.23-81.75-182.23-182.24V135.84H3.05V550.38c0,119.94,85.08,191.41,198.18,207.41.63.09,1.29.15,1.92.23,4.87.66,9.8,1.2,14.77,1.65,10.9,1,22,1.55,33.32,1.55h383.1c89.72,0,168.32-31.61,211.91-91.9.12-.15.24-.29.35-.45.62-.86,23.17-29.56,27.57-62.77C874.17,606.1,821.86,717.64,700.3,717.64Z"/><path class="cls-2" d="M513.57,135.84H622.05V535.4a73.84,73.84,0,0,0,73.75,73.76h6.92a73.83,73.83,0,0,0,73.73-73.76V3.05H592a57,57,0,0,0-51.47,32.47L495.28,135.84Z"/><path class="cls-3" d="M888,0H592a60.39,60.39,0,0,0-54.25,34.26l-44.42,98.52H0v417.6C0,662.66,76.94,743.3,200.78,760.8l2,.25c4.91.66,9.89,1.21,14.9,1.67,11.36,1,22.67,1.56,33.6,1.56h383.1c93.43,0,171.57-34,214.73-93.62.37-.51.72-1,1.07-1.58l.76-1.11c15.64-22.6,26.12-48.45,31.15-76.86.43-2.45.82-4.94,1.18-7.44.62-4.38,1-8.77,1.39-13.16A185.44,185.44,0,0,0,888,535.4ZM543.27,36.83A54.23,54.23,0,0,1,592,6.11H773.4V535.4a70.77,70.77,0,0,1-70.68,70.7H695.8a70.77,70.77,0,0,1-70.69-70.7V132.78H500ZM845.88,664.48l-.83,1.24c-.3.46-.61.92-1.27,1.81-41.65,57.6-118,90.64-209.44,90.64H251.24c-10.75,0-21.87-.52-33.05-1.54-4.92-.45-9.8-1-14.64-1.64l-1.9-.23C81,737.71,6.11,659.4,6.11,550.38V138.89h502V535.4c0,102.17,83.12,185.29,185.28,185.29h9.34c73.49,0,137.12-43,167-105.19A182.13,182.13,0,0,1,845.88,664.48Z"/></symbol></defs><g id="Settings_Icon_-_Preview_Sizes" data-name="Settings Icon - Preview Sizes"><g id="_29" data-name="29"><use width="888" height="764.28" transform="translate(1.36 4.46) scale(0.03)" xlink:href="#Icon"/></g></g></svg>